<svg width="48" height="48" viewBox="0 0 48 48" fill="none" xmlns="http://www.w3.org/2000/svg">
<path fill-rule="evenodd" clip-rule="evenodd" d="M0 0H48V48H0V0Z" fill="#D8D8D8" fill-opacity="0.01"/>
<path fill-rule="evenodd" clip-rule="evenodd" d="M0.585754 0.585789C-0.195251 1.36684 -0.195251 2.63317 0.585754 3.41422L13.1717 16L0.585754 28.5858C-0.195251 29.3668 -0.195251 30.6332 0.585754 31.4142C1.367 32.1953 2.63312 32.1953 3.41437 31.4142L16.0001 18.8285L28.8702 31.6985C29.6512 32.4795 30.9175 32.4795 31.6985 31.6985C32.4796 30.9174 32.4796 29.6511 31.6985 28.8701L18.8287 16L31.4144 3.41422C32.1954 2.63317 32.1954 1.36684 31.4144 0.585789C30.6331 -0.195263 29.367 -0.195263 28.5858 0.585789L16.0001 13.1715L3.41437 0.585789C2.63312 -0.195263 1.367 -0.195263 0.585754 0.585789Z" transform="translate(7.99997 8)" fill="#222222"/>
</svg>
