<svg width="37" height="35" viewBox="0 0 37 35" fill="none" xmlns="http://www.w3.org/2000/svg">
<path d="M35.6044 18.3485C35.2921 17.9242 33.314 15.697 30.8155 16.0152C30.7114 16.0152 30.6073 16.0152 30.6073 16.0152C30.6073 15.697 30.6073 15.3788 30.6073 15.0606C30.6073 4.13636 23.7363 0 15.3036 0C6.87102 0 0 4.13636 0 15.1667C0 26.0909 6.87102 35 15.3036 35C18.8433 35 22.0706 33.4091 24.6732 30.8636C26.3389 30.9697 27.7964 30.7576 29.0457 30.4394C30.8155 30.1212 34.0428 29.0606 35.3962 27.2576C37.166 25.0303 37.7906 21 35.6044 18.3485ZM1.76981 11.5606C1.5616 6.15151 7.18334 1.37879 14.3667 1.06061C19.2597 0.848485 23.528 2.65151 25.9225 5.51515C25.402 5.93939 24.6732 6.15152 24.0486 5.93939C23.528 5.72727 23.6322 5.40909 23.0075 4.98485C22.9034 4.87879 21.9664 4.24242 20.9254 4.56061C20.0925 4.77273 19.7802 5.72727 19.7802 6.36364C19.8843 7.10606 20.7172 6.68182 21.2377 7.84848C21.7582 8.90909 21.1336 10.0758 21.0295 10.1818C20.3007 11.5606 18.635 11.7727 17.9063 11.8788C16.2406 12.0909 14.679 11.5606 14.1585 11.3485C13.1174 10.9242 12.701 10.5 11.764 10.5C10.9312 10.5 10.5147 11.0303 9.786 11.2424C8.84904 11.6667 5.82996 11.1364 3.3314 12.5152C2.81087 12.7273 2.39445 13.0455 2.08213 13.3636C1.87392 12.9394 1.76981 12.197 1.76981 11.5606ZM6.97513 30.3333C6.76692 30.5455 4.99711 28.3182 3.43551 25.4545C2.18623 23.0152 2.08213 22.0606 2.29034 21.4242C2.49855 20.7879 2.91498 20.3636 3.43551 20.2576C4.37247 20.0455 5.30943 21.2121 5.62175 22.2727C6.03817 23.5455 5.30943 24.1818 5.41353 25.9848C5.51764 28.6364 7.07923 30.1212 6.97513 30.3333ZM15.3036 20.8939C9.36958 21.1061 4.16426 18.3485 2.39445 14.3182C2.60266 14.2121 2.81087 14.2121 3.12319 14.1061C3.53962 14 4.06015 14.1061 5.20532 14.2121C6.4546 14.3182 6.97513 14.3182 7.80798 14.5303C8.53672 14.6364 9.16136 14.7424 9.786 15.0606C11.0353 15.5909 11.0353 15.9091 12.0763 16.2273C12.8051 16.4394 13.4297 16.3333 14.1585 16.3333C14.3667 16.3333 14.9913 16.2273 16.2406 15.9091C16.3447 15.9091 16.8652 15.803 17.6981 15.5909C18.3227 15.3788 18.5309 15.2727 18.635 15.1667C19.0515 14.8485 19.3638 14.7424 19.6761 14.3182C20.1966 13.3636 20.8213 13.4697 21.8623 12.5152C22.1747 12.197 22.0706 12.197 23.0075 10.3939C23.6322 9.33333 23.9445 8.80303 24.2568 8.48485C24.5691 8.16667 25.2979 7.5303 26.3389 7.42424C26.6512 7.42424 26.9636 7.42424 27.2759 7.5303C27.6923 8.48485 27.9005 9.43939 28.0046 10.3939C28.2128 15.803 22.487 20.5758 15.3036 20.8939ZM27.38 27.2576C28.0046 26.197 28.7334 24.8182 29.1498 23.6515C29.6703 23.9697 31.1278 24.1818 31.1278 25.0303C31.1278 26.8333 28.6293 27.0455 27.38 27.2576Z" fill="#222222"/>
</svg>
