<svg width="219" height="35" viewBox="0 0 219 35" fill="none" xmlns="http://www.w3.org/2000/svg">
<path d="M35.6044 18.3485C35.2921 17.9242 33.314 15.697 30.8155 16.0152C30.7114 16.0152 30.6073 16.0152 30.6073 16.0152C30.6073 15.697 30.6073 15.3788 30.6073 15.0606C30.6073 4.13636 23.7363 0 15.3036 0C6.87102 0 0 4.13636 0 15.1667C0 26.0909 6.87102 35 15.3036 35C18.8433 35 22.0706 33.4091 24.6732 30.8636C26.3389 30.9697 27.7964 30.7576 29.0457 30.4394C30.8155 30.1212 34.0428 29.0606 35.3962 27.2576C37.166 25.0303 37.7906 21 35.6044 18.3485ZM1.76981 11.5606C1.5616 6.15151 7.18334 1.37879 14.3667 1.06061C19.2597 0.848485 23.528 2.65151 25.9225 5.51515C25.402 5.93939 24.6732 6.15152 24.0486 5.93939C23.528 5.72727 23.6322 5.40909 23.0075 4.98485C22.9034 4.87879 21.9664 4.24242 20.9254 4.56061C20.0925 4.77273 19.7802 5.72727 19.7802 6.36364C19.8843 7.10606 20.7172 6.68182 21.2377 7.84848C21.7582 8.90909 21.1336 10.0758 21.0295 10.1818C20.3007 11.5606 18.635 11.7727 17.9063 11.8788C16.2406 12.0909 14.679 11.5606 14.1585 11.3485C13.1174 10.9242 12.701 10.5 11.764 10.5C10.9312 10.5 10.5147 11.0303 9.786 11.2424C8.84904 11.6667 5.82996 11.1364 3.3314 12.5152C2.81087 12.7273 2.39445 13.0455 2.08213 13.3636C1.87392 12.9394 1.76981 12.197 1.76981 11.5606ZM6.97513 30.3333C6.76692 30.5455 4.99711 28.3182 3.43551 25.4545C2.18623 23.0152 2.08213 22.0606 2.29034 21.4242C2.49855 20.7879 2.91498 20.3636 3.43551 20.2576C4.37247 20.0455 5.30943 21.2121 5.62175 22.2727C6.03817 23.5455 5.30943 24.1818 5.41353 25.9848C5.51764 28.6364 7.07923 30.1212 6.97513 30.3333ZM15.3036 20.8939C9.36958 21.1061 4.16426 18.3485 2.39445 14.3182C2.60266 14.2121 2.81087 14.2121 3.12319 14.1061C3.53962 14 4.06015 14.1061 5.20532 14.2121C6.4546 14.3182 6.97513 14.3182 7.80798 14.5303C8.53672 14.6364 9.16136 14.7424 9.786 15.0606C11.0353 15.5909 11.0353 15.9091 12.0763 16.2273C12.8051 16.4394 13.4297 16.3333 14.1585 16.3333C14.3667 16.3333 14.9913 16.2273 16.2406 15.9091C16.3447 15.9091 16.8652 15.803 17.6981 15.5909C18.3227 15.3788 18.5309 15.2727 18.635 15.1667C19.0515 14.8485 19.3638 14.7424 19.6761 14.3182C20.1966 13.3636 20.8213 13.4697 21.8623 12.5152C22.1747 12.197 22.0706 12.197 23.0075 10.3939C23.6322 9.33333 23.9445 8.80303 24.2568 8.48485C24.5691 8.16667 25.2979 7.5303 26.3389 7.42424C26.6512 7.42424 26.9636 7.42424 27.2759 7.5303C27.6923 8.48485 27.9005 9.43939 28.0046 10.3939C28.2128 15.803 22.487 20.5758 15.3036 20.8939ZM27.38 27.2576C28.0046 26.197 28.7334 24.8182 29.1498 23.6515C29.6703 23.9697 31.1278 24.1818 31.1278 25.0303C31.1278 26.8333 28.6293 27.0455 27.38 27.2576Z" fill="#222222"/>
<path d="M0.04395 14.8447C0.04395 12.8525 0.03809 10.8721 0.02637 8.90331C0.02051 6.93457 0.01172 4.95117 -3.57437e-08 2.95313C-3.57437e-08 2.54883 0.0849701 2.26172 0.25489 2.0918C0.43067 1.91602 0.7002 1.82813 1.06348 1.82813C1.19825 1.82813 1.32715 1.84863 1.4502 1.88965C1.57325 1.93066 1.68165 1.99219 1.77539 2.07422C1.86915 2.15039 1.94239 2.24414 1.99512 2.35547C2.05372 2.4668 2.08301 2.59277 2.08301 2.7334C2.08301 3.57129 2.08008 4.36816 2.07422 5.12402C2.07422 5.87988 2.07129 6.6416 2.06543 7.40918L6.75 2.97949C6.81446 2.88574 6.91407 2.77441 7.04883 2.64551C7.18946 2.51074 7.33887 2.38477 7.49707 2.26758C7.66114 2.14453 7.82227 2.04199 7.98047 1.95996C8.14454 1.87207 8.28807 1.82813 8.41117 1.82813C8.54587 1.82813 8.67477 1.8457 8.79787 1.88086C8.92087 1.91602 9.02637 1.97168 9.11427 2.04785C9.20797 2.12402 9.28127 2.22363 9.33397 2.34668C9.39257 2.46973 9.42187 2.61621 9.42187 2.78613C9.42187 2.96777 9.39257 3.12598 9.33397 3.26074C9.28127 3.38965 9.20797 3.50684 9.11427 3.61231C9.02047 3.71191 8.91507 3.80274 8.79787 3.88477C8.68657 3.96094 8.56937 4.03418 8.44627 4.10449C7.6084 4.84863 6.76172 5.57813 5.90625 6.29297C5.05079 7.00195 4.1836 7.72851 3.30469 8.47261C3.69141 8.57811 4.06934 8.75681 4.43848 9.00881C4.81348 9.25491 5.1709 9.54201 5.51075 9.87011C5.85059 10.1924 6.16407 10.5381 6.45118 10.9072C6.74415 11.2764 7.00196 11.6338 7.22461 11.9795C7.39454 12.2432 7.56153 12.498 7.72559 12.7441C7.89551 12.9902 8.05957 13.207 8.21778 13.3945C8.38187 13.5762 8.54007 13.7226 8.69237 13.834C8.85057 13.9453 9.00587 14.001 9.15817 14.001C9.28127 14.001 9.41897 14.0068 9.57127 14.0185C9.72367 14.0244 9.86717 14.0566 10.002 14.1152C10.1368 14.168 10.2481 14.2529 10.336 14.3701C10.4297 14.4873 10.4766 14.6543 10.4766 14.8711C10.4766 15.1113 10.4268 15.3017 10.3272 15.4424C10.2276 15.583 10.1016 15.6885 9.94927 15.7588C9.79687 15.8291 9.62407 15.873 9.43067 15.8906C9.24317 15.9082 9.05857 15.917 8.87697 15.917C8.54297 15.917 8.22364 15.832 7.91895 15.6621C7.62012 15.4863 7.33301 15.2578 7.05762 14.9766C6.78809 14.6894 6.52735 14.3672 6.27539 14.0098C6.02344 13.6523 5.77442 13.2891 5.52832 12.9199C5.30567 12.5859 5.0625 12.249 4.79883 11.9092C4.54102 11.5635 4.2627 11.2471 3.96387 10.96C3.6709 10.667 3.36329 10.4121 3.04102 10.1953C2.71875 9.97851 2.39063 9.82621 2.05665 9.73831V10.7226C2.05665 11.3789 2.05665 12.0088 2.05665 12.6123C2.0625 13.2158 2.06836 13.7549 2.07422 14.2295C2.0918 14.3935 2.10352 14.54 2.10938 14.6689C2.11524 14.792 2.1211 14.9121 2.12696 15.0293C2.12696 15.334 2.02735 15.5566 1.82813 15.6973C1.63477 15.8437 1.36524 15.917 1.01954 15.917C0.94336 15.917 0.84961 15.9023 0.73829 15.873C0.62696 15.8496 0.51856 15.7969 0.41309 15.7148C0.31348 15.6387 0.22559 15.5303 0.14942 15.3896C0.07911 15.249 0.04395 15.0674 0.04395 14.8447ZM11.7071 10.3887C11.7071 9.59181 11.8418 8.85061 12.1114 8.16501C12.3809 7.47949 12.75 6.88477 13.2188 6.38086C13.6934 5.87695 14.2471 5.48145 14.8799 5.19434C15.5186 4.90723 16.2071 4.76367 16.9453 4.76367C17.3203 4.76367 17.6778 4.80762 18.0176 4.89551C18.3633 4.9834 18.6827 5.10059 18.9756 5.24707C19.2744 5.3877 19.541 5.54883 19.7754 5.73047C20.0157 5.91211 20.2207 6.09961 20.3907 6.29297C20.3848 6.21094 20.3819 6.12305 20.3819 6.0293C20.3819 5.93555 20.3819 5.85352 20.3819 5.7832C20.3819 5.63672 20.4024 5.50195 20.4434 5.37891C20.4844 5.25 20.5489 5.13867 20.6368 5.04492C20.7246 4.95117 20.836 4.87793 20.9707 4.8252C21.1055 4.7666 21.2696 4.73731 21.4629 4.73731C21.627 4.73731 21.7735 4.76953 21.9024 4.83399C22.0371 4.89258 22.1514 4.96875 22.2452 5.0625C22.3389 5.15039 22.4121 5.24707 22.4649 5.35254C22.5176 5.45215 22.544 5.54297 22.544 5.625C22.544 5.82422 22.5323 6.02637 22.5088 6.23145C22.4912 6.43066 22.4766 6.63281 22.4649 6.83789C22.4649 7.48242 22.459 8.05371 22.4473 8.55171C22.4414 9.04391 22.4327 9.49801 22.4209 9.91411C22.4092 10.1953 22.4004 10.4883 22.3946 10.793C22.3887 11.0918 22.3858 11.3672 22.3858 11.6191C22.3858 12.1875 22.3858 12.6387 22.3858 12.9726C22.3858 13.3066 22.4004 13.5498 22.4297 13.7021C22.4825 13.6904 22.5586 13.6641 22.6582 13.623C22.7637 13.582 22.8604 13.5381 22.9483 13.4912C23.0303 13.4619 23.1123 13.4326 23.1944 13.4033C23.2764 13.374 23.3789 13.3594 23.502 13.3594C23.6426 13.3594 23.7657 13.3916 23.8711 13.456C23.9766 13.5146 24.0645 13.5937 24.1348 13.6933C24.211 13.7871 24.2666 13.8955 24.3018 14.0185C24.3369 14.1357 24.3545 14.25 24.3545 14.3613C24.3545 14.5195 24.3164 14.6807 24.2403 14.8447C24.1641 15.0029 24.0235 15.1172 23.8184 15.1875C23.6426 15.2519 23.4639 15.3193 23.2823 15.3896C23.1006 15.46 22.916 15.5244 22.7286 15.583C22.5469 15.6416 22.3623 15.6914 22.1748 15.7324C21.9932 15.7734 21.8057 15.7939 21.6123 15.7939C21.3838 15.7939 21.1963 15.7471 21.0498 15.6533C20.9034 15.5596 20.7891 15.4394 20.7071 15.293C20.625 15.1406 20.5664 14.9736 20.5313 14.792C20.4961 14.6103 20.4756 14.4316 20.4698 14.2559C20.2881 14.4844 20.0684 14.6982 19.8106 14.8975C19.5528 15.0967 19.2686 15.2725 18.958 15.4248C18.6475 15.5771 18.3135 15.6973 17.9561 15.7851C17.6045 15.873 17.2412 15.917 16.8662 15.917C16.1045 15.917 15.4073 15.7793 14.7744 15.5039C14.1416 15.2226 13.5967 14.8359 13.1397 14.3437C12.6885 13.8457 12.3369 13.2598 12.085 12.5859C11.833 11.9121 11.7071 11.1797 11.7071 10.3887ZM13.7286 10.3887C13.7286 10.8633 13.7989 11.3203 13.9395 11.7598C14.086 12.1992 14.294 12.5889 14.5635 12.9287C14.8389 13.2627 15.1758 13.5293 15.5743 13.7285C15.9727 13.9277 16.4239 14.0273 16.9278 14.0273C17.4258 14.0273 17.877 13.9307 18.2813 13.7373C18.6856 13.5439 19.0371 13.292 19.336 12.9814C19.6407 12.6709 19.8897 12.3252 20.083 11.9443C20.2764 11.5576 20.4082 11.1709 20.4786 10.7842V10.0107C20.4141 9.65331 20.291 9.27541 20.1094 8.87691C19.9336 8.47851 19.6993 8.11231 19.4063 7.77831C19.1192 7.43848 18.7735 7.16016 18.3692 6.94336C17.9649 6.7207 17.5078 6.60938 16.9981 6.60938C16.5176 6.60938 16.0782 6.70899 15.6797 6.9082C15.2813 7.10156 14.9356 7.37109 14.6426 7.71681C14.3555 8.05661 14.1299 8.45511 13.9659 8.91211C13.8077 9.36911 13.7286 9.86131 13.7286 10.3887ZM28.1338 12.5859C27.8819 12.3105 27.627 12.0234 27.3692 11.7246C27.1172 11.4199 26.8887 11.0918 26.6836 10.7402C26.4844 10.3887 26.3203 10.0049 26.1914 9.58891C26.0684 9.17281 26.0069 8.71291 26.0069 8.20901C26.0069 7.93361 26.0186 7.69921 26.042 7.50586C26.0713 7.3125 26.1036 7.11328 26.1387 6.9082H25.9541C25.8487 6.9082 25.7344 6.89063 25.6114 6.85547C25.4883 6.81445 25.3741 6.75586 25.2686 6.67969C25.1631 6.59766 25.0752 6.49512 25.0049 6.37207C24.9346 6.24316 24.8994 6.08789 24.8994 5.90625C24.8994 5.74805 24.9258 5.61035 24.9786 5.49316C25.0313 5.37012 25.0987 5.27051 25.1807 5.19434C25.2686 5.11816 25.3682 5.0625 25.4795 5.02734C25.5909 4.98633 25.7051 4.96582 25.8223 4.96582C25.8399 4.96582 25.8809 4.96582 25.9453 4.96582C26.0098 4.96582 26.083 4.96875 26.1651 4.97461C26.2061 4.97461 26.2559 4.97754 26.3145 4.9834C26.3789 4.9834 26.4317 4.9834 26.4727 4.9834C26.6836 4.99512 26.8975 5.00098 27.1143 5.00098C27.3311 5.00098 27.5655 4.99805 27.8174 4.99219C28.0166 4.99219 28.1748 5.01856 28.292 5.07129C28.4151 5.11816 28.5059 5.17969 28.5645 5.25586C28.6289 5.32617 28.67 5.4082 28.6875 5.50195C28.7051 5.5957 28.7139 5.68652 28.7139 5.77441C28.7139 5.89746 28.6875 6.00586 28.6348 6.09961C28.5821 6.19336 28.5205 6.28418 28.4502 6.37207C28.3799 6.45996 28.3067 6.54785 28.2305 6.63574C28.1602 6.72363 28.1075 6.82324 28.0723 6.93457C28.0547 7.00488 28.0342 7.09863 28.0108 7.21582C27.9932 7.33301 27.9756 7.45606 27.958 7.58496C27.9463 7.70801 27.9346 7.83401 27.9229 7.96291C27.917 8.08591 27.9141 8.19431 27.9141 8.28811C27.9141 8.61621 27.9522 8.90921 28.0284 9.16701C28.1045 9.41891 28.2071 9.65331 28.336 9.87011C28.4707 10.0869 28.6231 10.292 28.793 10.4853C28.9688 10.6787 29.1504 10.875 29.3379 11.0742C29.5547 11.3027 29.7744 11.5517 29.9971 11.8213C30.2198 12.085 30.4102 12.3809 30.5684 12.709L30.6123 12.6211C30.7588 12.3164 30.9317 12.0381 31.1309 11.7861C31.3301 11.5342 31.5557 11.2822 31.8077 11.0303C31.9893 10.8369 32.1651 10.6465 32.335 10.459C32.5108 10.2715 32.666 10.0723 32.8008 9.86131C32.9356 9.64451 33.041 9.41011 33.1172 9.15821C33.1993 8.90041 33.2403 8.61031 33.2403 8.28811C33.2403 8.03611 33.2256 7.82521 33.1963 7.65527C33.1729 7.47949 33.1377 7.33008 33.0909 7.20703C33.0498 7.08399 33.003 6.98145 32.9502 6.89941C32.8975 6.81738 32.8477 6.74121 32.8008 6.6709C32.7188 6.57129 32.6485 6.45996 32.5899 6.33691C32.5313 6.21387 32.502 6.05273 32.502 5.85352C32.502 5.73633 32.5166 5.62793 32.5459 5.52832C32.5811 5.42285 32.6368 5.33203 32.7129 5.25586C32.795 5.17969 32.9034 5.12109 33.0381 5.08008C33.1787 5.0332 33.3545 5.00977 33.5655 5.00977C33.7705 5.00977 33.9815 5.00684 34.1983 5.00098C34.4151 4.98926 34.6787 4.9834 34.9893 4.9834C35.0889 4.9834 35.1973 5.00098 35.3145 5.03613C35.4317 5.07129 35.5371 5.12402 35.6309 5.19434C35.7305 5.26465 35.8125 5.35254 35.877 5.45801C35.9414 5.56348 35.9737 5.68945 35.9737 5.83594C35.9737 6.09375 35.8975 6.31055 35.7452 6.48633C35.5987 6.66211 35.335 6.76465 34.9541 6.79395C34.9893 6.91699 35.0186 7.05469 35.042 7.20703C35.0713 7.35938 35.0948 7.50879 35.1123 7.65527C35.1299 7.80171 35.1416 7.93941 35.1475 8.06831C35.1592 8.19141 35.1651 8.28811 35.1651 8.35841C35.1651 8.75101 35.1036 9.12891 34.9805 9.49221C34.8575 9.84961 34.6993 10.1894 34.5059 10.5117C34.3125 10.834 34.0957 11.1387 33.8555 11.4258C33.6211 11.7129 33.3897 11.9795 33.1612 12.2256C32.9737 12.4365 32.7862 12.6533 32.5987 12.876C32.417 13.0928 32.25 13.3154 32.0977 13.5439C31.9512 13.7725 31.8282 14.0068 31.7286 14.2471C31.6289 14.4814 31.5762 14.7217 31.5703 14.9678C31.5586 15.1963 31.5176 15.375 31.4473 15.5039C31.3828 15.6328 31.3008 15.7266 31.2012 15.7851C31.1075 15.8496 31.0078 15.8877 30.9024 15.8994C30.7969 15.9111 30.7032 15.917 30.6211 15.917C30.4981 15.917 30.375 15.8965 30.252 15.8555C30.1289 15.8144 30.0176 15.7559 29.918 15.6797C29.8184 15.6094 29.7364 15.5244 29.6719 15.4248C29.6075 15.3252 29.5752 15.2168 29.5752 15.0996C29.5694 14.8711 29.5254 14.6514 29.4434 14.4404C29.3672 14.2236 29.2618 14.0127 29.127 13.8076C28.9981 13.6025 28.8457 13.4004 28.67 13.2012C28.5 12.9961 28.3213 12.791 28.1338 12.5859ZM37.2129 10.3887C37.2129 9.59181 37.3477 8.85061 37.6172 8.16501C37.8868 7.47949 38.2559 6.88477 38.7246 6.38086C39.1993 5.87695 39.753 5.48145 40.3858 5.19434C41.0244 4.90723 41.7129 4.76367 42.4512 4.76367C42.8262 4.76367 43.1836 4.80762 43.5235 4.89551C43.8692 4.9834 44.1885 5.10059 44.4815 5.24707C44.7803 5.3877 45.0469 5.54883 45.2813 5.73047C45.5215 5.91211 45.7266 6.09961 45.8965 6.29297C45.8907 6.21094 45.8877 6.12305 45.8877 6.0293C45.8877 5.93555 45.8877 5.85352 45.8877 5.7832C45.8877 5.63672 45.9082 5.50195 45.9493 5.37891C45.9903 5.25 46.0547 5.13867 46.1426 5.04492C46.2305 4.95117 46.3418 4.87793 46.4766 4.8252C46.6114 4.7666 46.7754 4.73731 46.9688 4.73731C47.1328 4.73731 47.2793 4.76953 47.4082 4.83399C47.543 4.89258 47.6573 4.96875 47.751 5.0625C47.8448 5.15039 47.918 5.24707 47.9707 5.35254C48.0235 5.45215 48.0498 5.54297 48.0498 5.625C48.0498 5.82422 48.0381 6.02637 48.0147 6.23145C47.9971 6.43066 47.9825 6.63281 47.9707 6.83789C47.9707 7.48242 47.9649 8.05371 47.9532 8.55171C47.9473 9.04391 47.9385 9.49801 47.9268 9.91411C47.9151 10.1953 47.9063 10.4883 47.9004 10.793C47.8946 11.0918 47.8916 11.3672 47.8916 11.6191C47.8916 12.1875 47.8916 12.6387 47.8916 12.9726C47.8916 13.3066 47.9063 13.5498 47.9356 13.7021C47.9883 13.6904 48.0645 13.6641 48.1641 13.623C48.2696 13.582 48.3662 13.5381 48.4541 13.4912C48.5362 13.4619 48.6182 13.4326 48.7002 13.4033C48.7823 13.374 48.8848 13.3594 49.0078 13.3594C49.1485 13.3594 49.2715 13.3916 49.377 13.456C49.4825 13.5146 49.5703 13.5937 49.6407 13.6933C49.7168 13.7871 49.7725 13.8955 49.8077 14.0185C49.8428 14.1357 49.8604 14.25 49.8604 14.3613C49.8604 14.5195 49.8223 14.6807 49.7461 14.8447C49.67 15.0029 49.5293 15.1172 49.3243 15.1875C49.1485 15.2519 48.9698 15.3193 48.7881 15.3896C48.6065 15.46 48.4219 15.5244 48.2344 15.583C48.0528 15.6416 47.8682 15.6914 47.6807 15.7324C47.4991 15.7734 47.3116 15.7939 47.1182 15.7939C46.8897 15.7939 46.7022 15.7471 46.5557 15.6533C46.4092 15.5596 46.295 15.4394 46.2129 15.293C46.1309 15.1406 46.0723 14.9736 46.0371 14.792C46.002 14.6103 45.9815 14.4316 45.9756 14.2559C45.794 14.4844 45.5743 14.6982 45.3164 14.8975C45.0586 15.0967 44.7744 15.2725 44.4639 15.4248C44.1534 15.5771 43.8194 15.6973 43.4619 15.7851C43.1104 15.873 42.7471 15.917 42.3721 15.917C41.6104 15.917 40.9131 15.7793 40.2803 15.5039C39.6475 15.2226 39.1026 14.8359 38.6455 14.3437C38.1944 13.8457 37.8428 13.2598 37.5909 12.5859C37.3389 11.9121 37.2129 11.1797 37.2129 10.3887ZM39.2344 10.3887C39.2344 10.8633 39.3047 11.3203 39.4453 11.7598C39.5918 12.1992 39.7998 12.5889 40.0694 12.9287C40.3448 13.2627 40.6817 13.5293 41.0801 13.7285C41.4786 13.9277 41.9297 14.0273 42.4336 14.0273C42.9317 14.0273 43.3828 13.9307 43.7871 13.7373C44.1914 13.5439 44.543 13.292 44.8418 12.9814C45.1465 12.6709 45.3955 12.3252 45.5889 11.9443C45.7823 11.5576 45.9141 11.1709 45.9844 10.7842V10.0107C45.92 9.65331 45.7969 9.27541 45.6153 8.87691C45.4395 8.47851 45.2051 8.11231 44.9121 7.77831C44.625 7.43848 44.2793 7.16016 43.875 6.94336C43.4707 6.7207 43.0137 6.60938 42.5039 6.60938C42.0235 6.60938 41.584 6.70899 41.1856 6.9082C40.7871 7.10156 40.4414 7.37109 40.1485 7.71681C39.8614 8.05661 39.6358 8.45511 39.4717 8.91211C39.3135 9.36911 39.2344 9.86131 39.2344 10.3887ZM51.961 15.0908C51.961 14.8564 51.961 14.5869 51.961 14.2822C51.961 13.9717 51.958 13.6435 51.9522 13.2978C51.9463 12.7646 51.9434 12.1933 51.9434 11.584C51.9434 10.9687 51.9434 10.3359 51.9434 9.68551C51.9493 9.03511 51.9522 8.37301 51.9522 7.69921C51.958 7.01953 51.961 6.3457 51.961 5.67773C51.961 5.00977 51.9551 4.35645 51.9434 3.71777C51.9375 3.07324 51.9258 2.45801 51.9082 1.87207C51.8028 1.86621 51.6944 1.875 51.583 1.89844C51.4717 1.91602 51.3428 1.92481 51.1963 1.92481C51.0909 1.92481 50.9854 1.90723 50.8799 1.87207C50.7803 1.83691 50.6895 1.78125 50.6075 1.70508C50.5313 1.62305 50.4698 1.52051 50.4229 1.39746C50.376 1.27441 50.3526 1.125 50.3526 0.94922C50.3526 0.63867 50.4317 0.4043 50.5899 0.24609C50.7539 0.0820301 50.9532 -9.02557e-08 51.1875 -9.02557e-08C51.2813 -9.02557e-08 51.3721 0.01172 51.46 0.03516C51.5479 0.05859 51.6416 0.07031 51.7412 0.07031C51.9756 0.07031 52.2071 0.05859 52.4356 0.03516C52.67 0.01172 52.919 -9.02557e-08 53.1827 -9.02557e-08C53.4229 -9.02557e-08 53.6221 0.0820301 53.7803 0.24609C53.9385 0.4043 54.0176 0.62402 54.0176 0.90527C54.0176 1.28613 54.0147 1.70215 54.0088 2.15332C54.003 2.59863 53.9942 3.05566 53.9825 3.52441C53.9766 3.99316 53.9707 4.45898 53.9649 4.92188C53.959 5.37891 53.9532 5.80664 53.9473 6.20508C54.1407 6 54.3633 5.81543 54.6153 5.65137C54.8672 5.48145 55.1426 5.33789 55.4414 5.2207C55.7403 5.09766 56.0537 5.00391 56.3819 4.93945C56.71 4.86914 57.0469 4.83399 57.3926 4.83399C58.1719 4.83399 58.8838 4.96289 59.5284 5.2207C60.1787 5.47852 60.7354 5.84766 61.1983 6.32813C61.6612 6.80273 62.0186 7.37988 62.2705 8.05961C62.5284 8.73341 62.6573 9.48631 62.6573 10.3183C62.6573 11.2383 62.5166 12.0469 62.2354 12.7441C61.96 13.4414 61.5733 14.0273 61.0752 14.5019C60.5772 14.9707 59.9825 15.3252 59.291 15.5654C58.6055 15.7998 57.8496 15.917 57.0235 15.917C56.7188 15.917 56.417 15.8877 56.1182 15.8291C55.8194 15.7705 55.5323 15.6885 55.2569 15.583C54.9815 15.4717 54.7237 15.3428 54.4834 15.1963C54.2432 15.0498 54.0293 14.8887 53.8418 14.7129V15.082C53.8418 15.2344 53.8067 15.3603 53.7364 15.46C53.666 15.5596 53.5782 15.6387 53.4727 15.6973C53.3672 15.7559 53.25 15.7939 53.1211 15.8115C52.9981 15.835 52.8809 15.8467 52.7696 15.8467C52.5176 15.8467 52.3184 15.7969 52.1719 15.6973C52.0313 15.6035 51.961 15.4014 51.961 15.0908ZM53.7627 10.4414C53.7627 10.998 53.8506 11.499 54.0264 11.9443C54.208 12.3838 54.4483 12.7588 54.7471 13.0693C55.0459 13.374 55.3858 13.6113 55.7666 13.7812C56.1534 13.9453 56.5518 14.0273 56.9619 14.0273C57.4717 14.0273 57.9434 13.957 58.377 13.8164C58.8164 13.6758 59.1973 13.456 59.5196 13.1572C59.8418 12.8584 60.0938 12.4775 60.2754 12.0146C60.4571 11.5459 60.5479 10.9892 60.5479 10.3447C60.5479 9.78811 60.4688 9.28711 60.3106 8.84181C60.1582 8.39651 59.9356 8.01851 59.6426 7.70801C59.3496 7.3916 58.9952 7.15137 58.5791 6.98731C58.1631 6.81738 57.6914 6.73242 57.1641 6.73242C56.7188 6.73242 56.291 6.82617 55.8809 7.01367C55.4707 7.19531 55.1075 7.45313 54.791 7.78711C54.4805 8.11521 54.2315 8.50781 54.044 8.96481C53.8565 9.41601 53.7627 9.90821 53.7627 10.4414ZM67.9043 3.55078C67.7637 3.61523 67.6172 3.64746 67.4649 3.64746C67.3125 3.6416 67.1719 3.60938 67.043 3.55078C66.92 3.48633 66.8116 3.39551 66.7178 3.27832C66.6241 3.16113 66.5655 3.02051 66.542 2.85645C66.5244 2.74512 66.5274 2.61914 66.5508 2.47852C66.5801 2.33203 66.6153 2.18555 66.6563 2.03906C66.7032 1.88672 66.7442 1.74023 66.7793 1.59961C66.8203 1.45313 66.8467 1.32129 66.8584 1.2041C66.876 0.94043 66.9551 0.7207 67.0957 0.54492C67.2364 0.36914 67.4473 0.26074 67.7286 0.21973C67.9336 0.18457 68.127 0.19629 68.3086 0.25488C68.4903 0.31348 68.625 0.44238 68.7129 0.6416C68.7422 0.70606 68.7657 0.78223 68.7832 0.87012C68.8067 0.95215 68.8243 1.02539 68.836 1.08984C68.8418 1.14844 68.8389 1.22168 68.8272 1.30957C68.8213 1.39746 68.8067 1.49121 68.7832 1.59082C68.7598 1.68457 68.7305 1.78125 68.6953 1.88086C68.666 1.97461 68.6368 2.05664 68.6075 2.12695C68.5606 2.22656 68.5284 2.33496 68.5108 2.45215C68.4991 2.56348 68.4844 2.66602 68.4668 2.75977C68.4493 2.85352 68.4317 2.93848 68.4141 3.01465C68.3965 3.09082 68.3672 3.16113 68.3262 3.22559C68.291 3.29004 68.2383 3.34863 68.168 3.40137C68.1036 3.4541 68.0157 3.50391 67.9043 3.55078ZM66.4014 15.0029C66.4014 14.8564 66.4073 14.7334 66.419 14.6338C66.4366 14.5342 66.4512 14.4258 66.4629 14.3086C66.4805 14.1855 66.4952 14.042 66.5069 13.8779C66.5244 13.7139 66.5332 13.4912 66.5332 13.21C66.5332 12.1611 66.5303 11.1211 66.5244 10.0898C66.5186 9.05271 66.5039 7.95701 66.4805 6.80273C66.3926 6.80859 66.293 6.81445 66.1817 6.82031C66.0703 6.82617 65.9532 6.83203 65.8301 6.83789C65.7129 6.83789 65.5987 6.84082 65.4873 6.84668C65.376 6.84668 65.2764 6.84668 65.1885 6.84668C65.083 6.84668 64.9746 6.83203 64.8633 6.80273C64.7578 6.76758 64.6612 6.71191 64.5733 6.63574C64.4854 6.55957 64.4121 6.46289 64.3536 6.3457C64.295 6.22266 64.2657 6.07324 64.2657 5.89746C64.2657 5.58691 64.3477 5.35254 64.5118 5.19434C64.6817 5.03027 64.8809 4.94824 65.1094 4.94824C65.3321 4.94824 65.5518 4.95996 65.7686 4.9834C65.9912 5.00098 66.208 5.00977 66.419 5.00977C66.6358 5.00977 66.8526 5.00098 67.0694 4.9834C67.2862 4.95996 67.4912 4.94824 67.6846 4.94824C67.9834 4.94824 68.1973 5.02734 68.3262 5.18555C68.4551 5.34375 68.5196 5.56348 68.5196 5.84473C68.5196 6.08496 68.4991 6.32227 68.458 6.55664C68.417 6.78516 68.3965 7.03125 68.3965 7.29492C68.3965 7.82231 68.3936 8.35251 68.3877 8.88571C68.3819 9.41891 68.376 9.96091 68.3702 10.5117C68.3702 11.0625 68.3672 11.625 68.3614 12.1992C68.3614 12.7734 68.3672 13.3652 68.3789 13.9746C68.4727 13.9687 68.5577 13.9541 68.6338 13.9307C68.71 13.9072 68.7832 13.8838 68.8536 13.8603C68.9239 13.831 68.9971 13.8076 69.0733 13.79C69.1553 13.7666 69.2461 13.7549 69.3457 13.7549C69.4981 13.7549 69.6211 13.7725 69.7149 13.8076C69.8145 13.8428 69.8936 13.8926 69.9522 13.957C70.0108 14.0156 70.0547 14.0918 70.084 14.1855C70.1133 14.2734 70.1397 14.3701 70.1631 14.4756C70.2041 14.751 70.1368 14.9707 69.961 15.1348C69.7852 15.2988 69.545 15.4277 69.2403 15.5215C69.0645 15.5683 68.8828 15.6152 68.6953 15.6621C68.5137 15.709 68.3409 15.75 68.1768 15.7851C68.0127 15.8262 67.8633 15.8584 67.7286 15.8818C67.5938 15.9053 67.4883 15.917 67.4121 15.917C67.0664 15.917 66.8116 15.835 66.6475 15.6709C66.4834 15.5127 66.4014 15.29 66.4014 15.0029ZM72.8262 15.0469C72.8262 14.748 72.8467 14.4551 72.8877 14.168C72.9287 13.8809 72.9493 13.5762 72.9493 13.2539C72.9493 12.9082 72.9463 12.4629 72.9405 11.918C72.9405 11.3672 72.9375 10.7607 72.9317 10.0986C72.9258 9.43651 72.92 8.73631 72.9141 7.99801C72.9082 7.25391 72.8994 6.51856 72.8877 5.79199C72.8819 5.06543 72.8731 4.36524 72.8614 3.69141C72.8555 3.01172 72.8496 2.40234 72.8438 1.86328C72.6797 1.89258 72.4688 1.90723 72.211 1.90723C72.1055 1.90723 71.9971 1.88965 71.8858 1.85449C71.7803 1.81934 71.6807 1.7666 71.5869 1.69629C71.4991 1.62012 71.4258 1.52051 71.3672 1.39746C71.3145 1.27441 71.2881 1.125 71.2881 0.94922C71.2881 0.63867 71.3702 0.4043 71.5342 0.24609C71.6983 0.0820301 71.8946 -9.02557e-08 72.1231 -9.02557e-08C72.211 -9.02557e-08 72.2989 0.01172 72.3868 0.03516C72.4805 0.05859 72.5772 0.07031 72.6768 0.07031C72.9112 0.07031 73.1426 0.05859 73.3711 0.03516C73.6055 0.01172 73.8516 -9.02557e-08 74.1094 -9.02557e-08C74.3555 -9.02557e-08 74.5547 0.0820301 74.7071 0.24609C74.8653 0.4043 74.9444 0.62402 74.9444 0.90527C74.9327 1.06348 74.9209 1.20996 74.9092 1.34473C74.8975 1.47949 74.8858 1.62598 74.8741 1.78418C74.8623 1.94238 74.8506 2.12109 74.8389 2.32031C74.8272 2.51953 74.8213 2.7627 74.8213 3.04981C74.8096 3.84668 74.7979 4.59375 74.7862 5.29102C74.7803 5.98242 74.7744 6.61231 74.7686 7.18066C74.9854 6.88184 75.2373 6.5918 75.5244 6.31055C75.8174 6.02344 76.1397 5.77149 76.4912 5.55469C76.8487 5.33789 77.2354 5.16504 77.6514 5.03613C78.0674 4.90137 78.5098 4.83399 78.9786 4.83399C79.541 4.83399 80.0362 4.91016 80.4639 5.0625C80.8916 5.20899 81.2461 5.41992 81.5274 5.69531C81.8145 5.96484 82.0284 6.2959 82.169 6.68848C82.3155 7.0752 82.3887 7.50586 82.3887 7.98051C82.3887 8.37301 82.3272 8.73341 82.2041 9.06151C82.0869 9.38961 81.9287 9.68551 81.7295 9.94921C81.5362 10.2129 81.3135 10.4443 81.0616 10.6435C80.8096 10.8428 80.5518 11.0068 80.2881 11.1357C80.5401 11.3467 80.7334 11.5898 80.8682 11.8652C81.0088 12.1348 81.1202 12.4248 81.2022 12.7353C81.2373 12.8584 81.2754 12.9902 81.3164 13.1309C81.3575 13.2715 81.4073 13.4033 81.4659 13.5264C81.5244 13.6435 81.5889 13.7432 81.6592 13.8252C81.7354 13.9014 81.8174 13.9394 81.9053 13.9394C82.0635 13.9394 82.2188 13.9131 82.3711 13.8603C82.5235 13.8017 82.6846 13.7725 82.8545 13.7725C83.1123 13.7725 83.3262 13.8603 83.4961 14.0361C83.6719 14.206 83.7598 14.4492 83.7598 14.7656C83.7598 15.0176 83.6924 15.2197 83.5577 15.3721C83.4287 15.5244 83.2618 15.6416 83.0567 15.7236C82.8575 15.8115 82.6377 15.8672 82.3975 15.8906C82.1573 15.9199 81.9258 15.9346 81.7032 15.9346C81.293 15.9346 80.9561 15.8613 80.6924 15.7148C80.4287 15.5683 80.209 15.3779 80.0332 15.1435C79.8633 14.9092 79.7286 14.6484 79.6289 14.3613C79.5293 14.0742 79.4385 13.79 79.3565 13.5088C79.2979 13.3096 79.2393 13.1221 79.1807 12.9463C79.128 12.7646 79.0606 12.6064 78.9786 12.4717C78.9024 12.3369 78.8116 12.2314 78.7061 12.1553C78.6006 12.0732 78.4688 12.0322 78.3106 12.0322C77.8711 12.0322 77.5401 11.9648 77.3174 11.8301C77.0948 11.6953 76.9834 11.4521 76.9834 11.1006C76.9834 10.79 77.083 10.5527 77.2823 10.3887C77.4873 10.2246 77.7569 10.1426 78.0909 10.1426C78.1729 10.1426 78.2432 10.1484 78.3018 10.1601C78.3662 10.166 78.4307 10.1748 78.4952 10.1865C78.6475 10.1279 78.8291 10.0488 79.0401 9.94921C79.251 9.84371 79.4532 9.70901 79.6465 9.54491C79.8399 9.38091 80.0039 9.18461 80.1387 8.95601C80.2735 8.72751 80.3409 8.45511 80.3409 8.13871C80.3409 7.59375 80.1768 7.21289 79.8487 6.99609C79.5264 6.7793 79.0752 6.6709 78.4952 6.6709C78.0967 6.6709 77.7041 6.77344 77.3174 6.97852C76.9307 7.18359 76.5703 7.45606 76.2364 7.79591C75.9082 8.13571 75.6153 8.52831 75.3575 8.97361C75.1055 9.41311 74.9092 9.87011 74.7686 10.3447L74.795 11.4785C74.795 11.5312 74.795 11.5928 74.795 11.6631C74.795 11.7275 74.795 11.8389 74.795 11.9971C74.8008 12.1553 74.8067 12.3809 74.8125 12.6738C74.8184 12.9609 74.8243 13.3506 74.8301 13.8428C74.918 13.8193 75.0088 13.793 75.1026 13.7637C75.2022 13.7285 75.3018 13.7109 75.4014 13.7109C75.7237 13.7109 75.9668 13.79 76.1309 13.9482C76.295 14.1006 76.377 14.3262 76.377 14.625C76.377 14.8476 76.333 15.0264 76.2452 15.1611C76.1573 15.29 76.043 15.3926 75.9024 15.4687C75.7676 15.5391 75.6182 15.5889 75.4541 15.6182C75.2901 15.6475 75.1319 15.6709 74.9795 15.6885C74.7744 15.7119 74.5664 15.7559 74.3555 15.8203C74.1504 15.8848 73.9395 15.917 73.7227 15.917C73.377 15.917 73.1397 15.8437 73.0108 15.6973C72.8877 15.5508 72.8262 15.334 72.8262 15.0469ZM85.0782 10.3887C85.0782 9.59181 85.2129 8.85061 85.4825 8.16501C85.752 7.47949 86.1211 6.88477 86.5899 6.38086C87.0645 5.87695 87.6182 5.48145 88.251 5.19434C88.8897 4.90723 89.5782 4.76367 90.3164 4.76367C90.6914 4.76367 91.0489 4.80762 91.3887 4.89551C91.7344 4.9834 92.0537 5.10059 92.3467 5.24707C92.6455 5.3877 92.9121 5.54883 93.1465 5.73047C93.3868 5.91211 93.5918 6.09961 93.7618 6.29297C93.7559 6.21094 93.753 6.12305 93.753 6.0293C93.753 5.93555 93.753 5.85352 93.753 5.7832C93.753 5.63672 93.7735 5.50195 93.8145 5.37891C93.8555 5.25 93.92 5.13867 94.0078 5.04492C94.0957 4.95117 94.2071 4.87793 94.3418 4.8252C94.4766 4.7666 94.6407 4.73731 94.834 4.73731C94.9981 4.73731 95.1446 4.76953 95.2735 4.83399C95.4082 4.89258 95.5225 4.96875 95.6162 5.0625C95.71 5.15039 95.7832 5.24707 95.836 5.35254C95.8887 5.45215 95.9151 5.54297 95.9151 5.625C95.9151 5.82422 95.9034 6.02637 95.8799 6.23145C95.8623 6.43066 95.8477 6.63281 95.836 6.83789C95.836 7.48242 95.8301 8.05371 95.8184 8.55171C95.8125 9.04391 95.8037 9.49801 95.792 9.91411C95.7803 10.1953 95.7715 10.4883 95.7657 10.793C95.7598 11.0918 95.7569 11.3672 95.7569 11.6191C95.7569 12.1875 95.7569 12.6387 95.7569 12.9726C95.7569 13.3066 95.7715 13.5498 95.8008 13.7021C95.8536 13.6904 95.9297 13.6641 96.0293 13.623C96.1348 13.582 96.2315 13.5381 96.3194 13.4912C96.4014 13.4619 96.4834 13.4326 96.5655 13.4033C96.6475 13.374 96.75 13.3594 96.8731 13.3594C97.0137 13.3594 97.1368 13.3916 97.2422 13.456C97.3477 13.5146 97.4356 13.5937 97.5059 13.6933C97.5821 13.7871 97.6377 13.8955 97.6729 14.0185C97.708 14.1357 97.7256 14.25 97.7256 14.3613C97.7256 14.5195 97.6875 14.6807 97.6114 14.8447C97.5352 15.0029 97.3946 15.1172 97.1895 15.1875C97.0137 15.2519 96.835 15.3193 96.6534 15.3896C96.4717 15.46 96.2871 15.5244 96.0996 15.583C95.918 15.6416 95.7334 15.6914 95.5459 15.7324C95.3643 15.7734 95.1768 15.7939 94.9834 15.7939C94.7549 15.7939 94.5674 15.7471 94.4209 15.6533C94.2744 15.5596 94.1602 15.4394 94.0782 15.293C93.9961 15.1406 93.9375 14.9736 93.9024 14.792C93.8672 14.6103 93.8467 14.4316 93.8409 14.2559C93.6592 14.4844 93.4395 14.6982 93.1817 14.8975C92.9239 15.0967 92.6397 15.2725 92.3291 15.4248C92.0186 15.5771 91.6846 15.6973 91.3272 15.7851C90.9756 15.873 90.6123 15.917 90.2373 15.917C89.4756 15.917 88.7784 15.7793 88.1455 15.5039C87.5127 15.2226 86.9678 14.8359 86.5108 14.3437C86.0596 13.8457 85.708 13.2598 85.4561 12.5859C85.2041 11.9121 85.0782 11.1797 85.0782 10.3887ZM87.0996 10.3887C87.0996 10.8633 87.17 11.3203 87.3106 11.7598C87.4571 12.1992 87.6651 12.5889 87.9346 12.9287C88.21 13.2627 88.5469 13.5293 88.9453 13.7285C89.3438 13.9277 89.795 14.0273 90.2989 14.0273C90.7969 14.0273 91.2481 13.9307 91.6524 13.7373C92.0567 13.5439 92.4082 13.292 92.7071 12.9814C93.0118 12.6709 93.2608 12.3252 93.4541 11.9443C93.6475 11.5576 93.7793 11.1709 93.8496 10.7842V10.0107C93.7852 9.65331 93.6621 9.27541 93.4805 8.87691C93.3047 8.47851 93.0703 8.11231 92.7774 7.77831C92.4903 7.43848 92.1446 7.16016 91.7403 6.94336C91.336 6.7207 90.8789 6.60938 90.3692 6.60938C89.8887 6.60938 89.4493 6.70899 89.0508 6.9082C88.6524 7.10156 88.3067 7.37109 88.0137 7.71681C87.7266 8.05661 87.501 8.45511 87.3369 8.91211C87.1787 9.36911 87.0996 9.86131 87.0996 10.3887ZM105.812 9.01761C105.812 8.17381 105.903 7.41211 106.084 6.73242C106.272 6.04688 106.527 5.4375 106.849 4.9043C107.171 4.37109 107.549 3.91113 107.983 3.52441C108.416 3.1377 108.885 2.81836 109.389 2.56641C109.893 2.31445 110.417 2.12988 110.962 2.0127C111.513 1.88965 112.061 1.82813 112.606 1.82813C113.104 1.82813 113.593 1.875 114.073 1.96875C114.554 2.05664 115.029 2.18262 115.497 2.34668C115.638 2.39941 115.779 2.45215 115.919 2.50488C116.066 2.55176 116.195 2.61328 116.306 2.68945C116.423 2.76563 116.517 2.86231 116.587 2.97949C116.657 3.09668 116.693 3.24609 116.693 3.42773C116.693 3.63867 116.657 3.81445 116.587 3.95508C116.523 4.08984 116.438 4.19824 116.332 4.28027C116.227 4.36231 116.11 4.4209 115.981 4.45606C115.858 4.49121 115.738 4.50879 115.62 4.50879C115.538 4.50879 115.45 4.49707 115.357 4.47363C115.263 4.44434 115.166 4.40918 115.067 4.36816C114.967 4.32715 114.87 4.28027 114.777 4.22754C114.683 4.16895 114.598 4.11328 114.522 4.06055C114.311 3.97266 114.112 3.9082 113.924 3.86719C113.742 3.82031 113.567 3.78809 113.397 3.77051C113.227 3.74707 113.06 3.73535 112.896 3.73535C112.732 3.72949 112.568 3.72656 112.404 3.72656C112.034 3.72656 111.665 3.77051 111.296 3.8584C110.927 3.94043 110.57 4.07227 110.224 4.25391C109.884 4.42969 109.565 4.65234 109.266 4.92188C108.967 5.19141 108.706 5.51367 108.484 5.88867C108.267 6.25781 108.094 6.67969 107.965 7.1543C107.842 7.62891 107.781 8.15921 107.781 8.74511C107.781 9.71781 107.918 10.541 108.194 11.2148C108.475 11.8828 108.838 12.4248 109.283 12.8408C109.735 13.2568 110.241 13.5586 110.804 13.7461C111.366 13.9277 111.935 14.0185 112.509 14.0185C112.773 14.0185 113.031 14.0039 113.282 13.9746C113.54 13.9394 113.778 13.8984 113.994 13.8516C114.217 13.7988 114.413 13.7432 114.583 13.6846C114.753 13.6201 114.882 13.5557 114.97 13.4912C115.146 13.3389 115.301 13.2246 115.436 13.1484C115.571 13.0664 115.726 13.0254 115.902 13.0254C116.036 13.0254 116.162 13.04 116.28 13.0693C116.403 13.0986 116.508 13.1514 116.596 13.2275C116.684 13.2978 116.754 13.3916 116.807 13.5088C116.86 13.626 116.886 13.7725 116.886 13.9482C116.886 14.1943 116.801 14.4199 116.631 14.625C116.467 14.8242 116.2 15.0117 115.831 15.1875V15.1787C115.708 15.249 115.527 15.3281 115.286 15.416C115.052 15.5039 114.785 15.5859 114.487 15.6621C114.194 15.7324 113.883 15.791 113.555 15.8379C113.227 15.8906 112.905 15.917 112.588 15.917C111.867 15.917 111.199 15.832 110.584 15.6621C109.975 15.4863 109.418 15.2461 108.914 14.9414C108.416 14.6309 107.974 14.2617 107.587 13.834C107.2 13.4062 106.875 12.9375 106.612 12.4277C106.348 11.918 106.149 11.376 106.014 10.8017C105.879 10.2217 105.812 9.62691 105.812 9.01761ZM118.96 10.3623C118.96 9.60061 119.101 8.88571 119.382 8.21781C119.669 7.54395 120.059 6.95801 120.551 6.45996C121.049 5.95606 121.629 5.56055 122.291 5.27344C122.953 4.98047 123.662 4.83399 124.418 4.83399C125.244 4.83399 125.991 4.98047 126.659 5.27344C127.333 5.56055 127.907 5.95606 128.382 6.45996C128.863 6.95801 129.232 7.54395 129.489 8.21781C129.747 8.88571 129.876 9.60061 129.876 10.3623C129.876 10.9189 129.809 11.4433 129.674 11.9355C129.545 12.4277 129.361 12.8789 129.12 13.2891C128.88 13.6992 128.59 14.0683 128.25 14.3965C127.916 14.7187 127.547 14.9941 127.143 15.2226C126.739 15.4453 126.305 15.6152 125.842 15.7324C125.385 15.8555 124.91 15.917 124.418 15.917C123.68 15.917 122.98 15.7851 122.318 15.5215C121.656 15.2519 121.075 14.8769 120.577 14.3965C120.079 13.9101 119.684 13.3271 119.391 12.6475C119.104 11.9619 118.96 11.2002 118.96 10.3623ZM120.99 10.3623C120.99 10.9189 121.07 11.4228 121.228 11.874C121.386 12.3252 121.612 12.7119 121.905 13.0342C122.203 13.3506 122.564 13.5967 122.986 13.7725C123.407 13.9424 123.882 14.0273 124.409 14.0273C124.878 14.0273 125.321 13.9482 125.737 13.79C126.153 13.6318 126.516 13.4004 126.826 13.0957C127.143 12.7851 127.392 12.4014 127.573 11.9443C127.761 11.4873 127.855 10.96 127.855 10.3623C127.855 9.87011 127.776 9.40431 127.617 8.96481C127.465 8.51951 127.242 8.13281 126.949 7.80471C126.656 7.47656 126.296 7.21582 125.868 7.02246C125.441 6.8291 124.954 6.73242 124.409 6.73242C123.864 6.73242 123.381 6.8291 122.959 7.02246C122.537 7.21582 122.18 7.47656 121.887 7.80471C121.594 8.13281 121.371 8.51951 121.219 8.96481C121.067 9.40431 120.99 9.87011 120.99 10.3623ZM133.295 14.8799C133.295 14.7627 133.301 14.6455 133.313 14.5283C133.324 14.4111 133.333 14.2969 133.339 14.1855L133.19 6.89941H132.917C132.812 6.89941 132.703 6.88477 132.592 6.85547C132.481 6.82617 132.378 6.77637 132.284 6.70606C132.197 6.62988 132.123 6.5332 132.065 6.41602C132.006 6.29297 131.977 6.14063 131.977 5.95899C131.977 5.66016 132.059 5.43164 132.223 5.27344C132.393 5.10938 132.589 5.02734 132.812 5.02734C132.87 5.02734 132.923 5.03613 132.97 5.05371C133.017 5.07129 133.072 5.08301 133.137 5.08887C133.131 4.9834 133.122 4.86621 133.111 4.73731C133.105 4.60254 133.099 4.4707 133.093 4.3418C133.087 4.20703 133.081 4.08106 133.075 3.96387C133.075 3.84082 133.075 3.73535 133.075 3.64746C133.075 3.00293 133.157 2.45215 133.322 1.99512C133.486 1.53223 133.717 1.1543 134.016 0.86133C134.321 0.5625 134.684 0.3457 135.106 0.21094C135.533 0.07031 136.008 -9.02557e-08 136.53 -9.02557e-08C137.016 -9.02557e-08 137.426 0.06445 137.76 0.19336C138.094 0.31641 138.364 0.47168 138.569 0.65918C138.78 0.84082 138.929 1.03711 139.017 1.24805C139.111 1.45899 139.157 1.64941 139.157 1.81934C139.157 2.09473 139.067 2.30859 138.885 2.46094C138.709 2.61328 138.489 2.68945 138.226 2.68945C138.021 2.68945 137.854 2.64551 137.725 2.55762C137.596 2.46387 137.458 2.33789 137.312 2.17969C137.23 2.0918 137.115 2.00391 136.969 1.91602C136.828 1.82227 136.626 1.77539 136.363 1.77539C135.9 1.77539 135.557 1.97168 135.334 2.36426C135.117 2.75684 135.009 3.33691 135.009 4.10449C135.009 4.18652 135.015 4.32129 135.027 4.50879C135.038 4.69043 135.053 4.86914 135.071 5.04492C135.369 5.03906 135.698 5.03613 136.055 5.03613C136.418 5.03613 136.82 5.03613 137.259 5.03613C137.546 5.03613 137.763 5.12402 137.909 5.29981C138.062 5.47559 138.138 5.67773 138.138 5.90625C138.138 6.0293 138.114 6.14941 138.068 6.2666C138.021 6.38379 137.953 6.48926 137.865 6.58301C137.778 6.67676 137.666 6.75293 137.531 6.81152C137.403 6.87012 137.253 6.89941 137.083 6.89941H135.158L135.238 13.8779C135.384 13.8428 135.519 13.8017 135.642 13.7549C135.818 13.6963 135.979 13.6465 136.125 13.6055C136.272 13.5644 136.418 13.5439 136.565 13.5439C136.664 13.5439 136.764 13.5674 136.864 13.6142C136.963 13.6553 137.051 13.7168 137.127 13.7988C137.209 13.8809 137.274 13.9805 137.321 14.0976C137.373 14.209 137.4 14.332 137.4 14.4668C137.4 14.6894 137.323 14.8887 137.171 15.0644C137.025 15.2402 136.802 15.3603 136.503 15.4248C136.386 15.4541 136.251 15.4892 136.099 15.5303C135.952 15.5654 135.777 15.6123 135.572 15.6709C135.337 15.7353 135.1 15.791 134.86 15.8379C134.625 15.8906 134.444 15.917 134.315 15.917C134.198 15.917 134.077 15.9023 133.954 15.873C133.837 15.8437 133.729 15.7881 133.629 15.706C133.535 15.6299 133.456 15.5273 133.392 15.3984C133.327 15.2637 133.295 15.0908 133.295 14.8799ZM141.768 14.8799C141.768 14.7627 141.774 14.6455 141.785 14.5283C141.797 14.4111 141.806 14.2969 141.812 14.1855L141.662 6.89941H141.39C141.284 6.89941 141.176 6.88477 141.065 6.85547C140.953 6.82617 140.851 6.77637 140.757 6.70606C140.669 6.62988 140.596 6.5332 140.537 6.41602C140.479 6.29297 140.449 6.14063 140.449 5.95899C140.449 5.66016 140.531 5.43164 140.696 5.27344C140.865 5.10938 141.062 5.02734 141.284 5.02734C141.343 5.02734 141.396 5.03613 141.443 5.05371C141.489 5.07129 141.545 5.08301 141.61 5.08887C141.604 4.9834 141.595 4.86621 141.583 4.73731C141.577 4.60254 141.572 4.4707 141.566 4.3418C141.56 4.20703 141.554 4.08106 141.548 3.96387C141.548 3.84082 141.548 3.73535 141.548 3.64746C141.548 3.00293 141.63 2.45215 141.794 1.99512C141.958 1.53223 142.19 1.1543 142.489 0.86133C142.793 0.5625 143.156 0.3457 143.578 0.21094C144.006 0.07031 144.481 -9.02557e-08 145.002 -9.02557e-08C145.489 -9.02557e-08 145.899 0.06445 146.233 0.19336C146.567 0.31641 146.836 0.47168 147.041 0.65918C147.252 0.84082 147.402 1.03711 147.489 1.24805C147.583 1.45899 147.63 1.64941 147.63 1.81934C147.63 2.09473 147.539 2.30859 147.358 2.46094C147.182 2.61328 146.962 2.68945 146.698 2.68945C146.493 2.68945 146.326 2.64551 146.198 2.55762C146.069 2.46387 145.931 2.33789 145.784 2.17969C145.702 2.0918 145.588 2.00391 145.442 1.91602C145.301 1.82227 145.099 1.77539 144.835 1.77539C144.372 1.77539 144.03 1.97168 143.807 2.36426C143.59 2.75684 143.482 3.33691 143.482 4.10449C143.482 4.18652 143.488 4.32129 143.499 4.50879C143.511 4.69043 143.526 4.86914 143.543 5.04492C143.842 5.03906 144.17 5.03613 144.528 5.03613C144.891 5.03613 145.292 5.03613 145.732 5.03613C146.019 5.03613 146.236 5.12402 146.382 5.29981C146.534 5.47559 146.611 5.67773 146.611 5.90625C146.611 6.0293 146.587 6.14941 146.54 6.2666C146.493 6.38379 146.426 6.48926 146.338 6.58301C146.25 6.67676 146.139 6.75293 146.004 6.81152C145.875 6.87012 145.726 6.89941 145.556 6.89941H143.631L143.71 13.8779C143.857 13.8428 143.991 13.8017 144.114 13.7549C144.29 13.6963 144.451 13.6465 144.598 13.6055C144.744 13.5644 144.891 13.5439 145.037 13.5439C145.137 13.5439 145.237 13.5674 145.336 13.6142C145.436 13.6553 145.524 13.7168 145.6 13.7988C145.682 13.8809 145.746 13.9805 145.793 14.0976C145.846 14.209 145.872 14.332 145.872 14.4668C145.872 14.6894 145.796 14.8887 145.644 15.0644C145.497 15.2402 145.275 15.3603 144.976 15.4248C144.859 15.4541 144.724 15.4892 144.572 15.5303C144.425 15.5654 144.249 15.6123 144.044 15.6709C143.81 15.7353 143.572 15.791 143.332 15.8379C143.098 15.8906 142.916 15.917 142.787 15.917C142.67 15.917 142.55 15.9023 142.427 15.873C142.31 15.8437 142.201 15.7881 142.102 15.706C142.008 15.6299 141.929 15.5273 141.864 15.3984C141.8 15.2637 141.768 15.0908 141.768 14.8799ZM150.917 11.6982C151.029 12.1377 151.193 12.5068 151.409 12.8057C151.632 13.0986 151.881 13.3359 152.156 13.5176C152.432 13.6992 152.722 13.831 153.027 13.9131C153.337 13.9892 153.639 14.0273 153.932 14.0273C154.389 14.0273 154.796 13.9892 155.154 13.9131C155.511 13.831 155.816 13.7344 156.068 13.623C156.325 13.5059 156.533 13.3857 156.692 13.2627C156.85 13.1396 156.961 13.0312 157.026 12.9375C157.084 12.8496 157.149 12.7676 157.219 12.6914C157.295 12.6094 157.374 12.5391 157.456 12.4805C157.544 12.416 157.629 12.3662 157.711 12.331C157.799 12.2959 157.881 12.2783 157.957 12.2783C158.25 12.2783 158.476 12.3662 158.634 12.542C158.798 12.7119 158.88 12.9433 158.88 13.2363C158.88 13.3476 158.839 13.4883 158.757 13.6582C158.675 13.8281 158.523 14.0156 158.3 14.2207C158.054 14.4492 157.779 14.666 157.474 14.8711C157.175 15.0762 156.844 15.2578 156.481 15.416C156.117 15.5683 155.722 15.6885 155.294 15.7764C154.872 15.8701 154.415 15.917 153.923 15.917C153.343 15.917 152.813 15.8379 152.332 15.6797C151.852 15.5273 151.421 15.3193 151.04 15.0557C150.659 14.7861 150.328 14.4756 150.047 14.124C149.766 13.7725 149.531 13.3975 149.344 12.999C149.156 12.6006 149.016 12.1904 148.922 11.7685C148.828 11.3467 148.781 10.9365 148.781 10.5381C148.781 9.67091 148.922 8.88871 149.203 8.19141C149.485 7.48828 149.871 6.8877 150.364 6.38965C150.856 5.8916 151.439 5.50781 152.113 5.23828C152.786 4.96875 153.516 4.83399 154.301 4.83399C154.864 4.83399 155.391 4.91895 155.883 5.08887C156.375 5.25293 156.812 5.48731 157.193 5.79199C157.579 6.09082 157.902 6.45117 158.159 6.87305C158.423 7.28906 158.608 7.74901 158.713 8.25291C158.83 8.35251 158.915 8.48441 158.968 8.64841C159.027 8.80661 159.056 8.96481 159.056 9.12301C159.056 9.38671 158.965 9.60351 158.783 9.77341C158.608 9.93751 158.385 10.0517 158.115 10.1162C157.524 10.2685 156.932 10.4092 156.34 10.5381C155.748 10.667 155.154 10.793 154.556 10.916C153.958 11.0391 153.355 11.165 152.745 11.2939C152.142 11.4228 151.532 11.5576 150.917 11.6982ZM150.768 10.0723C151.764 9.83791 152.772 9.61821 153.791 9.41311C154.811 9.20801 155.848 8.97951 156.903 8.72751C156.803 8.45801 156.668 8.20311 156.498 7.96291C156.328 7.71681 156.129 7.50293 155.901 7.32129C155.672 7.13965 155.417 6.99609 155.136 6.89063C154.861 6.78516 154.562 6.73242 154.239 6.73242C153.741 6.73242 153.287 6.81445 152.877 6.97852C152.473 7.13672 152.121 7.36231 151.822 7.65527C151.524 7.94241 151.283 8.29391 151.102 8.71001C150.92 9.12011 150.809 9.57421 150.768 10.0723ZM163.239 11.6982C163.351 12.1377 163.515 12.5068 163.732 12.8057C163.954 13.0986 164.203 13.3359 164.479 13.5176C164.754 13.6992 165.044 13.831 165.349 13.9131C165.659 13.9892 165.961 14.0273 166.254 14.0273C166.711 14.0273 167.118 13.9892 167.476 13.9131C167.833 13.831 168.138 13.7344 168.39 13.623C168.648 13.5059 168.856 13.3857 169.014 13.2627C169.172 13.1396 169.283 13.0312 169.348 12.9375C169.406 12.8496 169.471 12.7676 169.541 12.6914C169.617 12.6094 169.697 12.5391 169.779 12.4805C169.866 12.416 169.951 12.3662 170.033 12.331C170.121 12.2959 170.203 12.2783 170.28 12.2783C170.572 12.2783 170.798 12.3662 170.956 12.542C171.12 12.7119 171.202 12.9433 171.202 13.2363C171.202 13.3476 171.161 13.4883 171.079 13.6582C170.997 13.8281 170.845 14.0156 170.622 14.2207C170.376 14.4492 170.101 14.666 169.796 14.8711C169.497 15.0762 169.166 15.2578 168.803 15.416C168.44 15.5683 168.044 15.6885 167.616 15.7764C167.195 15.8701 166.738 15.917 166.245 15.917C165.665 15.917 165.135 15.8379 164.655 15.6797C164.174 15.5273 163.743 15.3193 163.363 15.0557C162.982 14.7861 162.651 14.4756 162.369 14.124C162.088 13.7725 161.854 13.3975 161.666 12.999C161.479 12.6006 161.338 12.1904 161.244 11.7685C161.151 11.3467 161.104 10.9365 161.104 10.5381C161.104 9.67091 161.244 8.88871 161.526 8.19141C161.807 7.48828 162.194 6.8877 162.686 6.38965C163.178 5.8916 163.761 5.50781 164.435 5.23828C165.109 4.96875 165.838 4.83399 166.623 4.83399C167.186 4.83399 167.713 4.91895 168.205 5.08887C168.698 5.25293 169.134 5.48731 169.515 5.79199C169.902 6.09082 170.224 6.45117 170.482 6.87305C170.745 7.28906 170.93 7.74901 171.035 8.25291C171.153 8.35251 171.238 8.48441 171.29 8.64841C171.349 8.80661 171.378 8.96481 171.378 9.12301C171.378 9.38671 171.287 9.60351 171.106 9.77341C170.93 9.93751 170.707 10.0517 170.438 10.1162C169.846 10.2685 169.254 10.4092 168.662 10.5381C168.071 10.667 167.476 10.793 166.878 10.916C166.281 11.0391 165.677 11.165 165.068 11.2939C164.464 11.4228 163.855 11.5576 163.239 11.6982ZM163.09 10.0723C164.086 9.83791 165.094 9.61821 166.114 9.41311C167.133 9.20801 168.17 8.97951 169.225 8.72751C169.125 8.45801 168.99 8.20311 168.821 7.96291C168.651 7.71681 168.451 7.50293 168.223 7.32129C167.994 7.13965 167.739 6.99609 167.458 6.89063C167.183 6.78516 166.884 6.73242 166.562 6.73242C166.064 6.73242 165.61 6.81445 165.199 6.97852C164.795 7.13672 164.444 7.36231 164.145 7.65527C163.846 7.94241 163.606 8.29391 163.424 8.71001C163.242 9.12011 163.131 9.57421 163.09 10.0723Z" transform="translate(46.7402 8.33789)" fill="#222222"/>
</svg>
